<?xml version="1.0" encoding="utf-8"?>
<!-- Generator: Adobe Illustrator 24.0.3, SVG Export Plug-In . SVG Version: 6.00 Build 0)  -->
<svg version="1.1" id="Calque_1" xmlns="http://www.w3.org/2000/svg" xmlns:xlink="http://www.w3.org/1999/xlink" x="0px" y="0px"
	 viewBox="0 0 256 256" style="enable-background:new 0 0 256 256;" xml:space="preserve">
<style type="text/css">
	.st0{fill:url(#SVGID_1_);}
	.st1{fill:#3C3C3B;}
</style>
<linearGradient id="SVGID_1_" gradientUnits="userSpaceOnUse" x1="61.6692" y1="275.6823" x2="192.3296" y2="194.5747" gradientTransform="matrix(1 0 0 1 0 -156.8091)">
	<stop  offset="0" style="stop-color:#EC6608"/>
	<stop  offset="0.168" style="stop-color:#ED6C07"/>
	<stop  offset="0.3875" style="stop-color:#EF7A07"/>
	<stop  offset="0.6356" style="stop-color:#F39107"/>
	<stop  offset="0.9028" style="stop-color:#F9AF06"/>
	<stop  offset="1" style="stop-color:#FBBA07"/>
</linearGradient>
<path class="st0" d="M154.4,70.6c-0.6,0.4-1.6,0.3-2.3,0l-3.7-2.2c-0.3-0.2-0.6-0.5-0.8-0.8c0,0,0,0,0-0.1c-0.2-0.4-0.4-0.8-0.4-1.2
	l-0.1-4.3c0-0.7,0.4-1.6,1.1-2l44.2-25.7l-62-33.8C129.8,0.2,128.9,0,128,0c-0.9,0-1.8,0.2-2.5,0.6l-62,33.8L133,74.8
	c0.6,0.4,1.1,1.2,1.1,1.9v59c0,0.7-0.5,1.6-1.2,1.9l-3.7,2.1c-0.3,0.2-0.7,0.3-1.1,0.3H128c-0.4,0-0.9-0.1-1.2-0.3l-3.8-2.1
	c-0.6-0.3-1.2-1.2-1.2-1.9V83.1c0-0.4-0.3-0.9-0.6-1L60.1,46.5v69.7c0,1.6,1.1,3.5,2.4,4.3l63,37.2c0.7,0.4,1.6,0.6,2.4,0.6
	c0.9,0,1.8-0.2,2.4-0.6l63-37.2c1.3-0.8,2.4-2.7,2.4-4.3V46.5L154.4,70.6z"/>
<g>
	<path class="st1" d="M26.8,223.9c-2.8-1.7-5.6-2.4-9.4-2.4C7.3,221.5,0,228.4,0,238.8C0,249.2,6.8,256,17.5,256
		c3.4,0,6.7-0.7,9.6-2.4v-8.4c-2.5,1.9-5.3,3-8.4,3c-6,0-9.8-3.9-9.8-9.5c0-5.9,3.9-9.3,9.4-9.3c3,0,5.7,0.8,8.4,3L26.8,223.9
		L26.8,223.9z"/>
	<path class="st1" d="M81.3,247.7L81.3,247.7c-3.3-0.3-5-2.2-5-5.5v-35h-8.9v35.5c0,9.7,5.4,12.9,13.8,12.9L81.3,247.7L81.3,247.7z"
		/>
	<path class="st1" d="M46.7,221.5c-9.9,0-17.3,7-17.3,17.3S36.8,256,46.7,256S64,249,64,238.7S56.6,221.5,46.7,221.5z M46.7,248.3
		c-4.8,0-8.3-3.6-8.3-9.6s3.5-9.6,8.3-9.6s8.3,3.6,8.3,9.6S51.5,248.3,46.7,248.3z"/>
	<path class="st1" d="M99.8,253c2.7,1.7,6.7,2.7,10.7,2.7c7.7,0,13.1-3.3,13.1-10.4c0-5.9-2.9-9.2-11.4-10.8
		c-3.1-0.7-4.3-1.6-4.3-3.3c0-1.6,1.3-2.8,4.2-2.8c3.4,0,6.3,1.1,9.4,3.2v-7.9c-2.9-1.6-5.8-2.4-9.7-2.4c-7.1,0-12.6,3.3-12.6,10.6
		c0,6,3.1,9,10.6,10.3c3.6,0.7,5,1.6,5,3.6c0,2.1-1.9,2.9-4.6,2.9c-3.3,0-7.4-1.4-10.5-3.7L99.8,253L99.8,253z"/>
	<polygon class="st1" points="85.4,255.3 94.3,255.3 94.3,252.4 94.3,222.1 85.4,222.1 	"/>
	<path class="st1" d="M89.9,208.9c-2.5,0-4.5,2-4.5,4.5s2,4.5,4.5,4.5s4.5-2,4.5-4.5C94.3,210.9,92.3,208.9,89.9,208.9"/>
	<path class="st1" d="M238.7,221.5c-9.9,0-17.3,7-17.3,17.3s7.4,17.3,17.3,17.3c9.9,0,17.3-7,17.3-17.3
		C256,228.4,248.5,221.5,238.7,221.5z M238.7,248.3c-4.8,0-8.3-3.6-8.3-9.6s3.5-9.6,8.3-9.6s8.3,3.6,8.3,9.6
		S243.5,248.3,238.7,248.3z"/>
	<path class="st1" d="M126.7,253c2.7,1.7,6.7,2.7,10.7,2.7c7.7,0,13.1-3.3,13.1-10.4c0-5.9-2.9-9.2-11.4-10.8
		c-3.1-0.7-4.3-1.6-4.3-3.3c0-1.6,1.3-2.8,4.2-2.8c3.4,0,6.3,1.1,9.4,3.2v-7.9c-2.9-1.6-5.8-2.4-9.7-2.4c-7.1,0-12.6,3.3-12.6,10.6
		c0,6,3.1,9,10.6,10.3c3.6,0.7,5,1.6,5,3.6c0,2.1-1.9,2.9-4.6,2.9c-3.3,0-7.4-1.4-10.5-3.7L126.7,253L126.7,253z"/>
	<polygon class="st1" points="154.3,255.3 163.3,255.3 163.3,252.4 163.3,222.1 154.3,222.1 	"/>
	<path class="st1" d="M158.8,208.9c-2.5,0-4.5,2-4.5,4.5s2,4.5,4.5,4.5s4.5-2,4.5-4.5S161.3,208.9,158.8,208.9"/>
	<path class="st1" d="M208.8,234.6c0-3.5-1.6-5.3-5-5.3c-2.4,0-4.7,0.5-6.2,1.3c0.3,0.7,0.7,1.9,0.7,3.4v21.3h-9v-20.7
		c0-3.5-1.6-5.3-5-5.3c-2.1,0-3.8,0.3-5.6,0.8v25.1h-8.9v-30.9c4.6-1.8,10-2.9,14.9-2.9c3.9,0,7.1,1,9.1,2.6c3-1.3,6.4-2.6,11.2-2.6
		c7.9,0,12.8,3,12.8,12.7v21h-9V234.6L208.8,234.6z"/>
</g>
</svg>
